<svg preserveAspectRatio="none" width="100%" height="100%" overflow="visible" style="display: block;" viewBox="0 0 408 274" fill="none" xmlns="http://www.w3.org/2000/svg">
<g id="flowers">
<path id="Union" d="M40 224C33.7224 224 28.5594 219.228 27.9409 213.113C23.1799 217 16.1547 216.723 11.7157 212.284C7.27679 207.845 7.00045 200.82 10.8867 196.059C4.7722 195.441 -2.74403e-07 190.278 0 184C4.96851e-07 177.722 4.77221 172.559 10.8867 171.941C7.00046 167.18 7.2768 160.155 11.7157 155.716C16.1547 151.277 23.1799 151 27.9409 154.887C28.5594 148.772 33.7224 144 40 144C46.2776 144 51.4406 148.772 52.0591 154.887C56.8201 151 63.8453 151.277 68.2843 155.716C72.7232 160.155 72.9996 167.18 69.1133 171.941C75.2278 172.559 80 177.722 80 184C80 190.278 75.2278 195.441 69.1133 196.059C72.9996 200.82 72.7232 207.845 68.2843 212.284C63.8453 216.723 56.8201 217 52.0591 213.113C51.4406 219.228 46.2776 224 40 224Z" fill="var(--fill-0, #FDC8ED)"/>
<path id="Union_2" d="M40 80C33.7224 80 28.5594 75.2278 27.9409 69.1133C23.1799 72.9996 16.1547 72.7232 11.7157 68.2843C7.27679 63.8453 7.00045 56.8201 10.8867 52.0591C4.7722 51.4406 -2.74403e-07 46.2776 0 40C4.96851e-07 33.7224 4.77221 28.5594 10.8867 27.9409C7.00046 23.1799 7.2768 16.1547 11.7157 11.7157C16.1547 7.27679 23.1799 7.00044 27.9409 10.8867C28.5594 4.77219 33.7224 4.96851e-07 40 0C46.2776 -2.74403e-07 51.4406 4.7722 52.0591 10.8867C56.8201 7.00044 63.8453 7.27678 68.2843 11.7157C72.7232 16.1547 72.9996 23.1799 69.1133 27.9409C75.2278 28.5594 80 33.7224 80 40C80 46.2776 75.2278 51.4406 69.1133 52.0591C72.9996 56.8201 72.7232 63.8453 68.2843 68.2843C63.8453 72.7232 56.8201 72.9996 52.0591 69.1133C51.4406 75.2278 46.2776 80 40 80Z" fill="var(--fill-0, #FDC8ED)"/>
<path id="Union_3" d="M181 92C174.722 92 169.559 87.2278 168.941 81.1133C164.18 84.9996 157.155 84.7232 152.716 80.2843C148.277 75.8453 148 68.8201 151.887 64.0591C145.772 63.4406 141 58.2776 141 52C141 45.7224 145.772 40.5594 151.887 39.9409C148 35.1799 148.277 28.1547 152.716 23.7157C157.155 19.2768 164.18 19.0004 168.941 22.8867C169.559 16.7722 174.722 12 181 12C187.278 12 192.441 16.7722 193.059 22.8867C197.82 19.0004 204.845 19.2768 209.284 23.7157C213.723 28.1547 214 35.1799 210.113 39.9409C216.228 40.5594 221 45.7224 221 52C221 58.2776 216.228 63.4406 210.113 64.0591C214 68.8201 213.723 75.8453 209.284 80.2843C204.845 84.7232 197.82 84.9996 193.059 81.1133C192.441 87.2278 187.278 92 181 92Z" fill="var(--fill-0, #FDC8ED)"/>
<path id="Union_4" d="M283 264C276.722 264 271.559 259.228 270.941 253.113C266.18 257 259.155 256.723 254.716 252.284C250.277 247.845 250 240.82 253.887 236.059C247.772 235.441 243 230.278 243 224C243 217.722 247.772 212.559 253.887 211.941C250 207.18 250.277 200.155 254.716 195.716C259.155 191.277 266.18 191 270.941 194.887C271.559 188.772 276.722 184 283 184C289.278 184 294.441 188.772 295.059 194.887C299.82 191 306.845 191.277 311.284 195.716C315.723 200.155 316 207.18 312.113 211.941C318.228 212.559 323 217.722 323 224C323 230.278 318.228 235.441 312.113 236.059C316 240.82 315.723 247.845 311.284 252.284C306.845 256.723 299.82 257 295.059 253.113C294.441 259.228 289.278 264 283 264Z" fill="var(--fill-0, #FDC8ED)"/>
<path id="Union_5" d="M368 109C361.722 109 356.559 104.228 355.941 98.1133C351.18 102 344.155 101.723 339.716 97.2843C335.277 92.8453 335 85.8201 338.887 81.0591C332.772 80.4406 328 75.2776 328 69C328 62.7224 332.772 57.5594 338.887 56.9409C335 52.1799 335.277 45.1547 339.716 40.7157C344.155 36.2768 351.18 36.0004 355.941 39.8867C356.559 33.7722 361.722 29 368 29C374.278 29 379.441 33.7722 380.059 39.8867C384.82 36.0004 391.845 36.2768 396.284 40.7157C400.723 45.1547 401 52.1799 397.113 56.9409C403.228 57.5594 408 62.7224 408 69C408 75.2776 403.228 80.4406 397.113 81.0591C401 85.8201 400.723 92.8453 396.284 97.2843C391.845 101.723 384.82 102 380.059 98.1133C379.441 104.228 374.278 109 368 109Z" fill="var(--fill-0, #FDC8ED)"/>
</g>
</svg>
