<svg preserveAspectRatio="none" width="100%" height="100%" overflow="visible" style="display: block;" viewBox="0 0 60 60" fill="none" xmlns="http://www.w3.org/2000/svg">
<path id="Union" d="M30 60C25.2918 60 21.4195 56.4208 20.9557 51.835C17.3849 54.7497 12.116 54.5424 8.7868 51.2132C5.45759 47.884 5.25034 42.6151 8.16503 39.0443C3.57915 38.5805 -2.05802e-07 34.7082 0 30C3.72638e-07 25.2918 3.57916 21.4195 8.16504 20.9557C5.25034 17.3849 5.4576 12.116 8.78681 8.78679C12.116 5.45759 17.3849 5.25033 20.9557 8.16502C21.4195 3.57915 25.2918 3.72638e-07 30 0C34.7082 -2.05802e-07 38.5805 3.57915 39.0443 8.16502C42.6151 5.25033 47.884 5.45758 51.2132 8.78679C54.5424 12.116 54.7497 17.3849 51.835 20.9557C56.4208 21.4195 60 25.2918 60 30C60 34.7082 56.4209 38.5805 51.835 39.0443C54.7497 42.6151 54.5424 47.884 51.2132 51.2132C47.884 54.5424 42.6151 54.7497 39.0443 51.835C38.5805 56.4208 34.7082 60 30 60Z" fill="var(--fill-0, #8FE3D9)"/>
</svg>
