<svg width="64" height="64" viewBox="0 0 64 64" fill="none" xmlns="http://www.w3.org/2000/svg">
<mask id="mask0_206_1712" style="mask-type:luminance" maskUnits="userSpaceOnUse" x="0" y="0" width="64" height="64">
<path d="M0 0H64V64H0V0Z" fill="white"/>
</mask>
<g mask="url(#mask0_206_1712)">
<mask id="mask1_206_1712" style="mask-type:luminance" maskUnits="userSpaceOnUse" x="0" y="0" width="64" height="64">
<path d="M32 0C14.3269 0 0 14.3271 0 31.9995C0 49.6729 14.3269 64 32 64C49.6731 64 64 49.6729 64 31.9995C64 14.3271 49.6731 0 32 0Z" fill="white"/>
</mask>
<g mask="url(#mask1_206_1712)">
<path d="M0 0H64V64H0V0Z" fill="#FDC8ED"/>
</g>
</g>
<mask id="mask2_206_1712" style="mask-type:luminance" maskUnits="userSpaceOnUse" x="0" y="0" width="64" height="64">
<path d="M0 0H63.9373V63.9384H0V0Z" fill="white"/>
</mask>
<g mask="url(#mask2_206_1712)">
<mask id="mask3_206_1712" style="mask-type:luminance" maskUnits="userSpaceOnUse" x="0" y="0" width="64" height="64">
<path d="M32 0C14.3269 0 0 14.326 0 31.9995C0 49.6729 14.3269 64 32 64C49.6721 64 63.9989 49.6729 63.9989 31.9995C63.9989 14.326 49.6721 0 32 0Z" fill="white"/>
</mask>
<g mask="url(#mask3_206_1712)">
<path d="M32 0C14.3269 0 0 14.326 0 31.9995C0 49.6729 14.3269 64 32 64C49.6721 64 63.9989 49.6729 63.9989 31.9995C63.9989 14.326 49.6721 0 32 0Z" stroke="black" stroke-width="2"/>
</g>
</g>
<mask id="mask4_206_1712" style="mask-type:luminance" maskUnits="userSpaceOnUse" x="4" y="4" width="56" height="56">
<path d="M4.83087 4.83083H59.1693V59.1691H4.83087V4.83083Z" fill="white"/>
</mask>
<g mask="url(#mask4_206_1712)">
<mask id="mask5_206_1712" style="mask-type:luminance" maskUnits="userSpaceOnUse" x="4" y="4" width="56" height="56">
<path d="M32.0001 4.83083C16.9953 4.83083 4.83087 16.9944 4.83087 31.9994C4.83087 47.0055 16.9953 59.1691 32.0001 59.1691C47.0049 59.1691 59.1693 47.0055 59.1693 31.9994C59.1693 16.9944 47.0049 4.83083 32.0001 4.83083Z" fill="white"/>
</mask>
<g mask="url(#mask5_206_1712)">
<path d="M4.83087 4.83083H59.1693V59.1691H4.83087V4.83083Z" fill="#8FE3D9"/>
</g>
</g>
<mask id="mask6_206_1712" style="mask-type:luminance" maskUnits="userSpaceOnUse" x="4" y="4" width="56" height="56">
<path d="M4.83087 4.83083H59.1672V59.1681H4.83087V4.83083Z" fill="white"/>
</mask>
<g mask="url(#mask6_206_1712)">
<mask id="mask7_206_1712" style="mask-type:luminance" maskUnits="userSpaceOnUse" x="4" y="4" width="56" height="56">
<path d="M31.999 4.83083C16.9943 4.83083 4.83087 16.9944 4.83087 31.9994C4.83087 47.0034 16.9943 59.1681 31.999 59.1681C47.0038 59.1681 59.1672 47.0034 59.1672 31.9994C59.1672 16.9944 47.0038 4.83083 31.999 4.83083Z" fill="white"/>
</mask>
<g mask="url(#mask7_206_1712)">
<path d="M31.999 4.83083C16.9943 4.83083 4.83087 16.9944 4.83087 31.9994C4.83087 47.0034 16.9943 59.1681 31.999 59.1681C47.0038 59.1681 59.1672 47.0034 59.1672 31.9994C59.1672 16.9944 47.0038 4.83083 31.999 4.83083Z" stroke="#303030" stroke-width="2"/>
</g>
</g>
<mask id="mask8_206_1712" style="mask-type:luminance" maskUnits="userSpaceOnUse" x="11" y="11" width="42" height="42">
<path d="M11.6445 11.4035H52.3557V52.1153H11.6445V11.4035Z" fill="white"/>
</mask>
<g mask="url(#mask8_206_1712)">
<mask id="mask9_206_1712" style="mask-type:luminance" maskUnits="userSpaceOnUse" x="11" y="11" width="42" height="42">
<path d="M32.0001 11.4035C20.7579 11.4035 11.6445 20.517 11.6445 31.7594C11.6445 43.0018 20.7579 52.1153 32.0001 52.1153C43.2423 52.1153 52.3557 43.0018 52.3557 31.7594C52.3557 20.517 43.2423 11.4035 32.0001 11.4035Z" fill="white"/>
</mask>
<g mask="url(#mask9_206_1712)">
<path d="M11.6445 11.4035V52.1153H52.3557V11.4035H11.6445Z" fill="url(#paint0_linear_206_1712)"/>
</g>
</g>
<mask id="mask10_206_1712" style="mask-type:luminance" maskUnits="userSpaceOnUse" x="11" y="11" width="42" height="42">
<path d="M11.6445 11.4035H52.3319V52.0916H11.6445V11.4035Z" fill="white"/>
</mask>
<g mask="url(#mask10_206_1712)">
<mask id="mask11_206_1712" style="mask-type:luminance" maskUnits="userSpaceOnUse" x="11" y="11" width="42" height="42">
<path d="M31.999 11.4035C20.7579 11.4035 11.6445 20.517 11.6445 31.7583C11.6445 43.0008 20.7579 52.1143 31.999 52.1143C43.2412 52.1143 52.3546 43.0008 52.3546 31.7583C52.3546 20.517 43.2412 11.4035 31.999 11.4035Z" fill="white"/>
</mask>
<g mask="url(#mask11_206_1712)">
<path d="M31.999 11.4035C20.7579 11.4035 11.6445 20.517 11.6445 31.7583C11.6445 43.0008 20.7579 52.1143 31.999 52.1143C43.2413 52.1143 52.3546 43.0008 52.3546 31.7583C52.3546 20.517 43.2413 11.4035 31.999 11.4035Z" stroke="black" stroke-width="2"/>
</g>
</g>
<path d="M18.3522 31.7875C17.6538 31.8935 17.1056 31.7583 16.7088 31.3799C16.3142 30.9972 16.0644 30.462 15.9596 29.7711C15.8547 29.0813 15.8785 28.3169 16.0309 27.4778C16.1228 26.9783 16.2266 26.4399 16.3412 25.8625C16.458 25.2819 16.5845 24.6494 16.7196 23.9661C16.4461 24.0082 16.2277 23.9682 16.0623 23.8471C15.8979 23.726 15.7779 23.5725 15.7033 23.3887C15.6309 23.2006 15.606 23.0308 15.6265 22.8816C15.6503 22.7324 15.7184 22.6481 15.8309 22.6319C16.378 22.5486 16.7845 22.3313 17.0483 21.9799C17.3143 21.6253 17.4851 21.2706 17.5586 20.9171C17.7003 20.3354 17.8657 19.957 18.0538 19.7829C18.2441 19.6045 18.4582 19.4974 18.695 19.4607C19.0453 19.4077 19.2842 19.5223 19.415 19.8045C19.5469 20.0824 19.5156 20.5354 19.3177 21.1636C19.2269 21.4847 19.1858 21.7247 19.1945 21.8815C19.2053 22.0394 19.2993 22.1042 19.4756 22.0772L20.4476 21.9291C20.5719 21.9107 20.666 21.9864 20.7298 22.1572C20.7925 22.3248 20.8195 22.5248 20.8108 22.7562C20.8022 22.9843 20.7514 23.1963 20.6606 23.3909C20.5676 23.5822 20.427 23.6914 20.2389 23.7206C19.667 23.8071 19.2475 23.8947 18.9815 23.9823C18.7144 24.0666 18.5371 24.2039 18.4517 24.3942C18.3652 24.5845 18.2917 24.9024 18.2322 25.3468C18.1295 26.0247 18.2355 26.5372 18.5501 26.8853C18.8636 27.2292 19.2961 27.36 19.8464 27.2757C20.2205 27.2194 20.5406 27.0854 20.8065 26.8734C21.0736 26.6615 21.2779 26.3988 21.4196 26.0842C21.4974 25.9209 21.6174 25.8474 21.7785 25.8668C21.9429 25.8852 22.0867 25.949 22.2088 26.0582C22.3342 26.1663 22.3764 26.2874 22.3342 26.4215C22.2542 26.6518 22.1483 26.9675 22.0164 27.3708C21.8877 27.7698 21.7255 28.2087 21.5309 28.6855C21.3352 29.1602 21.092 29.6175 20.8011 30.0576C20.5135 30.4955 20.1665 30.8739 19.7599 31.1907C19.3566 31.5075 18.8874 31.7064 18.3522 31.7875ZM23.7495 30.9669C23.1138 31.0631 22.5937 30.875 22.1894 30.4014C21.7872 29.9279 21.5223 29.2737 21.3958 28.4401C21.3158 27.9146 21.2963 27.3459 21.3374 26.7361C21.3785 26.1242 21.4823 25.5122 21.6509 24.9013C21.8196 24.2904 22.0618 23.7217 22.3764 23.1952C22.691 22.6675 23.0835 22.2253 23.5517 21.8685C24.0198 21.5106 24.5777 21.2825 25.2253 21.1841C25.5994 21.1268 25.8935 21.1182 26.1087 21.1571C26.3249 21.1928 26.4947 21.2522 26.6168 21.3366C26.7379 21.4209 26.8406 21.4923 26.9239 21.5517C27.0104 21.6069 27.1163 21.6253 27.2407 21.6058C27.4504 21.5744 27.6115 21.489 27.724 21.3506C27.8375 21.2122 27.9651 21.0706 28.1078 20.9279C28.2548 20.7841 28.47 20.6911 28.7565 20.6468C29.0052 20.6089 29.1868 20.6457 29.3004 20.756C29.4139 20.8662 29.4863 21.0284 29.5188 21.2403C29.5717 21.5874 29.5263 21.9475 29.3836 22.3205C29.2452 22.6935 29.1101 23.1692 28.9803 23.7498C28.7749 24.4807 28.7381 25.0213 28.8722 25.3716C29.0095 25.7209 29.2831 25.8647 29.6939 25.802C30.0161 25.7533 30.2832 25.6268 30.4951 25.4235C30.707 25.217 30.8843 24.95 31.027 24.6234C31.1016 24.4602 31.2195 24.3877 31.3816 24.4061C31.546 24.4245 31.6898 24.4883 31.812 24.5975C31.9374 24.7067 31.9795 24.8278 31.9374 24.9619C31.7784 25.43 31.6119 25.9501 31.4368 26.522C31.2616 27.0897 31.0551 27.6411 30.8162 28.1752C30.5794 28.7061 30.2853 29.1613 29.9361 29.5408C29.5858 29.9181 29.149 30.1463 28.6257 30.2252C27.9781 30.3236 27.4807 30.1322 27.1337 29.65C26.7866 29.1667 26.6104 28.5309 26.606 27.7417L26.5325 27.7525C26.2741 28.5699 25.9097 29.2845 25.4394 29.8976C24.9734 30.5106 24.4091 30.8663 23.7495 30.9669ZM25.0318 26.814C25.354 26.7653 25.6232 26.6291 25.8373 26.4074C26.0525 26.1815 26.2081 25.9241 26.3044 25.6355C26.4006 25.3479 26.4287 25.0721 26.3887 24.8105C26.3411 24.5013 26.2168 24.2721 26.0135 24.1261C25.8135 23.9758 25.5648 23.9239 25.2664 23.9693C24.9442 24.018 24.6772 24.1488 24.4674 24.3607C24.2566 24.5705 24.1063 24.8191 24.0155 25.1067C23.9258 25.3943 23.902 25.6744 23.9431 25.9479C23.9906 26.2582 24.1117 26.4918 24.3063 26.6496C24.5042 26.8032 24.7464 26.8572 25.0318 26.814ZM33.2608 29.5202C32.5612 29.6273 32.0141 29.491 31.6173 29.1126C31.2227 28.731 30.973 28.1947 30.8681 27.5038C30.7632 26.814 30.787 26.0496 30.9394 25.2105C31.0313 24.7121 31.1351 24.1737 31.2497 23.5963C31.3665 23.0146 31.493 22.3832 31.6282 21.6999C31.3546 21.7409 31.1351 21.7009 30.9708 21.5798C30.8065 21.4587 30.6864 21.3063 30.6118 21.1214C30.5394 20.9333 30.5145 20.7646 30.5351 20.6154C30.5589 20.4651 30.627 20.3819 30.7394 20.3646C31.2865 20.2813 31.693 20.064 31.9568 19.7126C32.2228 19.358 32.3936 19.0033 32.4672 18.6498C32.6088 18.0692 32.7742 17.6907 32.9613 17.5156C33.1526 17.3372 33.3667 17.2301 33.6035 17.1945C33.9538 17.1404 34.1927 17.255 34.3236 17.5372C34.4555 17.8162 34.423 18.2692 34.2263 18.8963C34.1354 19.2174 34.0944 19.4574 34.1019 19.6153C34.1138 19.7721 34.2079 19.8369 34.3841 19.8099L35.3561 19.6629C35.4804 19.6434 35.5745 19.7191 35.6372 19.8899C35.701 20.0575 35.728 20.2575 35.7194 20.4889C35.7107 20.7181 35.6599 20.929 35.5691 21.1236C35.4761 21.3149 35.3356 21.4252 35.1474 21.4533C34.5755 21.5409 34.156 21.6274 33.89 21.715C33.623 21.7993 33.4456 21.9366 33.3591 22.1269C33.2737 22.3172 33.2002 22.6351 33.1407 23.0795C33.038 23.7574 33.144 24.271 33.4586 24.618C33.7722 24.9619 34.2046 25.0927 34.755 25.0094C35.129 24.9521 35.4491 24.8181 35.7151 24.6061C35.9821 24.3942 36.1865 24.1315 36.3281 23.8179C36.4059 23.6536 36.5259 23.5812 36.687 23.5995C36.8514 23.6179 36.9952 23.6817 37.1174 23.7909C37.2428 23.899 37.2849 24.0201 37.2428 24.1542C37.1628 24.3845 37.0568 24.7013 36.9249 25.1035C36.7962 25.5025 36.6341 25.9414 36.4395 26.4193C36.2438 26.894 36.0005 27.3503 35.7096 27.7903C35.4221 28.2293 35.075 28.6066 34.6685 28.9234C34.2652 29.2402 33.7959 29.4391 33.2608 29.5202ZM38.6581 28.6996C38.0223 28.7969 37.5023 28.6077 37.0979 28.1341C36.6957 27.6606 36.4308 27.0064 36.3043 26.1739C36.2243 25.6474 36.2048 25.0797 36.2459 24.4699C36.287 23.8569 36.3908 23.2449 36.5595 22.634C36.7281 22.0242 36.9703 21.4544 37.2849 20.9279C37.5996 20.4013 37.992 19.958 38.4602 19.6012C38.9284 19.2434 39.4862 19.0152 40.1339 18.9168C40.508 18.8606 40.8021 18.8509 41.0172 18.8898C41.2335 18.9255 41.4032 18.986 41.5243 19.0693C41.6465 19.1536 41.7492 19.225 41.8324 19.2844C41.9189 19.3396 42.0249 19.358 42.1492 19.3385C42.359 19.3071 42.5201 19.2217 42.6325 19.0833C42.746 18.9449 42.8736 18.8044 43.0163 18.6606C43.1634 18.5168 43.3785 18.4238 43.665 18.3805C43.9137 18.3427 44.0954 18.3784 44.2089 18.4887C44.3224 18.599 44.3949 18.7611 44.4273 18.9741C44.4803 19.3201 44.4349 19.6802 44.2921 20.0532C44.1537 20.4262 44.0186 20.903 43.8889 21.4825C43.6834 22.2134 43.6467 22.754 43.7807 23.1043C43.918 23.4536 44.1916 23.5974 44.6024 23.5347C44.9246 23.486 45.1917 23.3595 45.4036 23.1562C45.6155 22.9497 45.7928 22.6838 45.9355 22.3562C46.0101 22.1929 46.128 22.1204 46.2902 22.1399C46.4545 22.1583 46.5983 22.2221 46.7205 22.3302C46.8459 22.4394 46.887 22.5605 46.8459 22.6946C46.687 23.1638 46.5205 23.6839 46.3453 24.2548C46.1702 24.8224 45.9637 25.3738 45.7236 25.9079C45.4879 26.4388 45.1938 26.894 44.8446 27.2735C44.4943 27.6508 44.0575 27.879 43.5342 27.9579C42.8866 28.0563 42.3892 27.8649 42.0422 27.3827C41.6951 26.9005 41.5189 26.2636 41.5135 25.4744L41.441 25.4852C41.1826 26.3026 40.8183 27.0183 40.348 27.6303C39.882 28.2433 39.3176 28.599 38.6581 28.6996ZM39.9403 24.5467C40.2625 24.498 40.5318 24.3629 40.7458 24.1401C40.961 23.9142 41.1167 23.6568 41.2129 23.3692C41.3091 23.0806 41.3372 22.8059 41.2972 22.5443C41.2497 22.234 41.1253 22.0058 40.9221 21.8588C40.722 21.7085 40.4734 21.6566 40.175 21.702C39.8528 21.7507 39.5857 21.8815 39.376 22.0945C39.1651 22.3032 39.0148 22.5519 38.924 22.8395C38.8343 23.1271 38.8105 23.4071 38.8516 23.6817C38.8992 23.9909 39.0203 24.2256 39.2149 24.3823C39.4127 24.5359 39.6538 24.591 39.9403 24.5467Z" stroke="black" stroke-width="2.21477"/>
<path d="M40.9318 38.8662C40.7491 39.2608 40.4507 39.5614 40.0377 39.7669C39.6236 39.9701 39.1425 40.1139 38.5954 40.1972C38.0851 40.2739 37.6623 40.2534 37.3304 40.1323C37.0006 40.008 36.8114 39.7917 36.7649 39.4814C36.7303 39.2554 36.7725 39.0522 36.8903 38.8695C37.0082 38.6835 37.2234 38.5602 37.5347 38.5008C39.0765 38.2661 39.7512 37.5136 39.5576 36.2421C39.5014 35.8713 39.3165 35.5566 39.003 35.2993C38.6905 35.0387 38.2537 34.9512 37.6937 35.0366C37.0223 35.1393 36.4925 35.4712 36.1054 36.0345C35.7205 36.5967 35.4015 37.3417 35.1475 38.2705C35.0967 38.4467 34.9842 38.5754 34.8101 38.6586C34.6382 38.7397 34.4761 38.7559 34.3225 38.704C34.1679 38.65 34.0933 38.5213 34.0998 38.318C34.1398 37.3936 34.2955 36.4821 34.5658 35.5826C34.8361 34.6798 35.0815 33.8224 35.2999 33.0115C35.4859 32.3703 35.5097 31.914 35.3713 31.6416C35.234 31.3702 34.9723 31.2642 34.5863 31.3226C34.0868 31.3983 33.6803 31.7821 33.3657 32.4741C33.051 33.1661 32.7656 34.163 32.5094 35.4658C32.2553 36.7643 31.9493 38.371 31.5904 40.2869C31.4855 40.8502 31.4174 41.42 31.3838 41.9985C31.3503 42.5758 31.3687 43.1013 31.4412 43.576C31.5244 44.123 31.7017 44.5653 31.9742 44.8994C32.2488 45.2345 32.6553 45.361 33.1938 45.2789C33.6046 45.2172 33.8998 45.0702 34.0793 44.841C34.262 44.6085 34.3658 44.3339 34.3928 44.0182C34.422 43.7003 34.4133 43.3857 34.3658 43.0754L34.1506 41.6568C34.0911 41.2708 34.1376 40.9929 34.2901 40.8232C34.4436 40.6502 34.6231 40.5907 34.8274 40.6437C35.0339 40.6967 35.181 40.8805 35.2664 41.1973C35.634 42.4547 36.0157 43.3532 36.4092 43.8938C36.8049 44.4312 37.3261 44.6507 37.9748 44.5523C38.497 44.4723 38.9543 44.2755 39.3447 43.9609C39.7393 43.6462 40.0734 43.2667 40.348 42.8234C40.6259 42.3801 40.8605 41.9249 41.0508 41.4568C41.24 40.9865 41.3967 40.5518 41.52 40.1528C41.6454 39.7517 41.7546 39.4349 41.8465 39.2025C41.9006 39.0673 41.8714 38.9289 41.76 38.7862C41.6508 38.6446 41.5146 38.5613 41.3481 38.5364C41.1859 38.5083 41.0464 38.6186 40.9318 38.8662ZM40.9318 38.8662C40.8626 39.3344 40.8216 39.8177 40.8064 40.3183C40.7956 40.8178 40.8237 41.2849 40.8897 41.7195C40.9881 42.3672 41.2021 42.8991 41.533 43.3154C41.8638 43.7284 42.3406 43.8884 42.9645 43.7933C43.4478 43.7198 43.8629 43.5262 44.21 43.2116C44.5582 42.898 44.8533 42.5218 45.0987 42.0828C45.3453 41.6438 45.555 41.1886 45.7258 40.7183C45.8967 40.2437 46.0372 39.809 46.1486 39.4122C46.2589 39.0122 46.3605 38.7029 46.4546 38.4835C46.5021 38.3613 46.4621 38.2423 46.3356 38.1277C46.2091 38.0131 46.0664 37.9504 45.9053 37.9374C45.7442 37.9245 45.6253 38.0002 45.5474 38.1645C45.4004 38.4662 45.2447 38.7192 45.0793 38.9213C44.9139 39.1235 44.6868 39.2468 44.3981 39.2911C44.1495 39.329 43.9354 39.2825 43.7559 39.1506C43.5775 39.0187 43.4651 38.7981 43.4175 38.4878C43.3667 38.1504 43.3797 37.7807 43.4586 37.3806C43.5386 36.9795 43.6197 36.5719 43.7029 36.1578C43.7862 35.7437 43.7992 35.3501 43.7419 34.976C43.6575 34.416 43.4034 34.1684 42.9807 34.2332C42.4455 34.3143 42.0282 34.7511 41.7287 35.5437C41.4281 36.3329 41.1632 37.4401 40.9318 38.8662ZM54.4748 37.2822C54.5289 37.1471 54.4932 37.0249 54.3678 36.9157C54.2456 36.8076 54.0986 36.7438 53.9277 36.7265C53.7602 36.7081 53.638 36.7816 53.5601 36.946C53.2358 37.6574 52.7601 38.2283 52.1308 38.6565C51.5015 39.0824 50.8691 39.343 50.2333 39.4392C49.6981 39.5214 49.2278 39.5074 48.8224 39.3971C48.4169 39.2846 48.1888 39.0673 48.1401 38.7451C48.1207 38.6208 48.1455 38.5375 48.2137 38.4964C48.285 38.451 48.3553 38.4424 48.4245 38.4683C48.6537 38.5613 48.8959 38.6089 49.151 38.61C49.4062 38.6089 49.6646 38.5883 49.9252 38.5483C50.5371 38.4553 51.0442 38.2294 51.4464 37.8693C51.8519 37.506 52.1438 37.0822 52.3222 36.5968C52.5027 36.1124 52.56 35.6453 52.4908 35.1944C52.4292 34.7846 52.2833 34.4116 52.0551 34.0754C51.827 33.7402 51.5124 33.4926 51.1112 33.3326C50.7101 33.1693 50.2171 33.1326 49.6333 33.2212C48.8732 33.3369 48.2158 33.6094 47.6622 34.0386C47.1087 34.4657 46.6621 34.989 46.3237 35.6096C45.9853 36.2281 45.7539 36.8865 45.6307 37.5871C45.5063 38.2867 45.4923 38.97 45.5874 39.6371C45.6826 40.3042 45.888 40.8989 46.2037 41.42C46.5194 41.9379 46.9411 42.3304 47.4698 42.5953C48.0017 42.8559 48.6407 42.9305 49.3889 42.8159C50.4723 42.6515 51.441 42.1001 52.2973 41.1605C53.1558 40.221 53.8823 38.9289 54.4748 37.2822ZM54.4748 37.2822C54.6435 36.9773 54.8349 36.627 55.0489 36.2335C55.2619 35.8377 55.4609 35.4463 55.6447 35.0604C55.7798 34.7846 55.929 34.7619 56.0923 34.9922C56.2664 35.2215 56.4069 35.4485 56.5129 35.6756C56.6188 35.8983 56.688 36.1232 56.7226 36.3481C56.781 36.7341 56.7183 37.0757 56.5334 37.3709C56.3474 37.6671 56.0501 37.8455 55.6393 37.9083C55.329 37.9558 55.0652 37.9191 54.8478 37.8001C54.6338 37.6801 54.5094 37.5071 54.4748 37.2822ZM9.57841 48.8706C8.83022 48.9842 8.1934 48.9096 7.66795 48.6468C7.14465 48.3819 6.72623 47.9894 6.41052 47.4705C6.09481 46.9493 5.88831 46.3655 5.78992 45.7178C5.68937 45.0572 5.69802 44.3782 5.81587 43.6787C5.93371 42.9791 6.15428 42.3185 6.47972 41.6968C6.80516 41.0719 7.23331 40.5442 7.76633 40.115C8.30044 39.6825 8.93618 39.4101 9.67139 39.2976C10.5688 39.1614 11.2575 39.2933 11.7386 39.6933C12.2187 40.0901 12.5052 40.594 12.5982 41.2049C12.6803 41.7401 12.6425 42.1888 12.4857 42.552C12.3322 42.9121 12.1192 43.1878 11.8467 43.3824C11.5775 43.576 11.3061 43.6927 11.0326 43.7349C10.7104 43.7835 10.4585 43.7662 10.2779 43.6819C10.0995 43.5932 10.0012 43.4873 9.98169 43.3619C9.96439 43.2494 9.98385 43.1521 10.0401 43.0689C10.0985 42.9824 10.1558 42.8775 10.2109 42.7532C10.2704 42.6288 10.2823 42.4547 10.2487 42.2298C10.2217 42.0569 10.1428 41.9131 10.0098 41.7995C9.88114 41.6849 9.67139 41.6503 9.38271 41.6936C8.95997 41.7584 8.66156 41.992 8.4864 42.3953C8.31341 42.7942 8.2626 43.2321 8.33504 43.7057C8.41072 44.2052 8.60317 44.5912 8.91239 44.8648C9.22161 45.1351 9.59246 45.2951 10.026 45.3437C10.4596 45.3902 10.9126 45.3329 11.3872 45.174C11.8597 45.0118 12.3095 44.7491 12.7366 44.3858C13.1669 44.0214 13.5183 43.5576 13.7896 42.9932C13.8642 42.8299 13.9853 42.7564 14.1529 42.7748C14.3237 42.7921 14.4708 42.8559 14.593 42.964C14.7184 43.0732 14.7541 43.1954 14.7 43.3305C14.1097 44.9761 13.3831 46.2692 12.5182 47.2099C11.6521 48.1505 10.6726 48.7041 9.57841 48.8706ZM22.6813 41.6417C22.7365 41.5173 22.8479 41.4589 23.0133 41.4644C23.1819 41.4698 23.3344 41.5173 23.4695 41.6049C23.6036 41.6936 23.6447 41.8179 23.5917 41.979C23.4749 42.3791 23.3074 42.7996 23.0879 43.2408C22.8684 43.6819 22.5689 44.0679 22.1905 44.3998C21.8142 44.7307 21.3212 44.9426 20.7093 45.0356L20.4865 45.0691C20.1233 45.7751 19.6508 46.3665 19.0669 46.8444C18.4831 47.3213 17.8409 47.6132 17.1413 47.7202C16.3088 47.8467 15.5758 47.6716 14.9433 47.1958C14.3097 46.7158 13.9194 45.9914 13.7723 45.0215C13.6664 44.322 13.6858 43.5889 13.8307 42.8234C13.9745 42.0547 14.2297 41.3292 14.5951 40.6448C14.9638 39.9571 15.4298 39.3787 15.9931 38.9105C16.5597 38.4413 17.217 38.1504 17.9652 38.0369C18.4766 37.9591 18.9523 37.9926 19.3945 38.1364C19.8357 38.278 20.2152 38.5678 20.5298 39.0046C20.8455 39.4392 21.0628 40.0501 21.1817 40.8372C21.2823 41.4979 21.2866 42.152 21.1958 42.8007L21.3234 42.7813C21.5969 42.7391 21.8478 42.6277 22.0759 42.4472C22.3029 42.2666 22.5051 41.9974 22.6813 41.6417ZM17.6203 43.6895C17.9306 43.6419 18.1901 43.5078 18.3998 43.2862C18.6085 43.0613 18.761 42.805 18.8561 42.5164C18.9523 42.2288 18.9804 41.9531 18.9415 41.6914C18.8993 41.4179 18.7837 41.1973 18.5934 41.0308C18.402 40.861 18.1263 40.8027 17.7641 40.8578C17.4668 40.9032 17.2149 41.0319 17.0105 41.2438C16.8062 41.4514 16.6591 41.7001 16.5683 41.9877C16.4786 42.2753 16.4548 42.5553 16.4959 42.8288C16.538 43.1024 16.6483 43.3284 16.8278 43.5068C17.0062 43.6819 17.2711 43.7425 17.6203 43.6895ZM31.5741 40.2891C31.6293 40.1658 31.7406 40.1064 31.9061 40.1128C32.0747 40.1182 32.2272 40.1647 32.3623 40.2534C32.4964 40.3421 32.5375 40.4664 32.4834 40.6264C32.3677 41.0275 32.2001 41.4481 31.9807 41.8882C31.7612 42.3293 31.4617 42.7153 31.0833 43.0472C30.707 43.3781 30.214 43.59 29.602 43.683L29.3793 43.7165C29.016 44.4225 28.5436 45.014 27.9597 45.4919C27.3759 45.9697 26.7336 46.2617 26.0341 46.3676C25.2016 46.4941 24.4686 46.3201 23.8361 45.8432C23.2025 45.3643 22.8122 44.6388 22.6651 43.6689C22.5592 42.9694 22.5776 42.2374 22.7235 41.4719C22.8673 40.7032 23.1225 39.9766 23.4879 39.2922C23.8566 38.6046 24.3226 38.0261 24.8859 37.5579C25.4524 37.0898 26.1098 36.7979 26.858 36.6843C27.3694 36.6065 27.8451 36.64 28.2873 36.7849C28.7284 36.9254 29.1079 37.2152 29.4226 37.652C29.7383 38.0867 29.9556 38.6975 30.0745 39.4857C30.1751 40.1453 30.1794 40.7994 30.0886 41.4481L30.2162 41.4287C30.4897 41.3876 30.7405 41.2762 30.9687 41.0946C31.1957 40.914 31.3979 40.6459 31.5741 40.2891ZM26.5131 42.3369C26.8234 42.2904 27.0829 42.1552 27.2926 41.9336C27.5013 41.7098 27.6537 41.4525 27.7489 41.1649C27.8451 40.8762 27.8732 40.6015 27.8343 40.3399C27.7921 40.0663 27.6764 39.8458 27.4862 39.6782C27.2948 39.5084 27.0191 39.4511 26.6569 39.5063C26.3596 39.5506 26.1076 39.6793 25.9033 39.8912C25.6989 40.0999 25.5519 40.3475 25.4611 40.6351C25.3713 40.9227 25.3476 41.2027 25.3887 41.4773C25.4308 41.7509 25.5411 41.9768 25.7206 42.1542C25.899 42.3293 26.1639 42.3909 26.5131 42.3369ZM43.4975 33.3704C43.051 33.4375 42.6498 33.4007 42.2952 33.2591C41.9438 33.1131 41.7298 32.7909 41.6541 32.2925C41.5535 31.6318 41.6692 31.1529 42.0001 30.8534C42.3309 30.5539 42.7504 30.3657 43.2586 30.289C43.7321 30.2165 44.1505 30.262 44.5106 30.4252C44.8749 30.5874 45.0771 30.9647 45.1171 31.5551C45.1528 32.1378 45.0122 32.5682 44.6976 32.8471C44.3841 33.1217 43.984 33.2958 43.4975 33.3704ZM49.2289 37.2217C49.5878 37.1665 49.8517 37.0087 50.0203 36.747C50.1922 36.4843 50.2593 36.2345 50.2236 35.9967C50.1922 35.7869 50.0928 35.6183 49.9273 35.4907C49.7619 35.3609 49.5359 35.3177 49.2494 35.3609C48.8872 35.4161 48.6169 35.5718 48.4385 35.8291C48.2634 36.0864 48.1942 36.3394 48.232 36.5892C48.2623 36.787 48.3607 36.9535 48.5283 37.0898C48.6948 37.2239 48.9283 37.2671 49.2289 37.2217ZM60.8095 35.8431C60.8863 35.6788 61.0063 35.6064 61.1674 35.6258C61.3328 35.6442 61.4755 35.708 61.5988 35.8172C61.7242 35.9253 61.7653 36.0464 61.7231 36.1805C61.6561 36.4086 61.5534 36.7276 61.4161 37.1374C61.2831 37.5461 61.1025 37.9872 60.8755 38.4608C60.6484 38.9343 60.3554 39.396 59.9943 39.8458C59.6364 40.2956 59.205 40.6826 58.7012 41.0081C58.1963 41.3335 57.5951 41.5498 56.8956 41.6568C56.0739 41.7811 55.3971 41.7065 54.864 41.433C54.3332 41.1562 53.9386 40.7637 53.6812 40.2545C53.4261 39.7431 53.292 39.1895 53.279 38.5937C53.2628 37.9958 53.3569 37.4466 53.5612 36.946L53.6207 36.8195C53.8877 36.3221 54.1451 35.7837 54.3927 35.2042C54.6435 34.6246 54.9084 34.0743 55.1873 33.5531C55.4652 33.0309 55.7668 32.5898 56.0923 32.2297C56.4199 31.8686 56.7832 31.6578 57.181 31.5972C57.7681 31.5075 58.2222 31.5789 58.5433 31.8102C58.8645 32.0416 59.0418 32.3065 59.0753 32.6071C59.098 32.7552 59.0515 32.8904 58.9358 33.0104C58.8201 33.1304 58.6774 33.2461 58.5077 33.3553C58.3401 33.4623 58.1974 33.5845 58.0784 33.724C57.9595 33.8635 57.9141 34.0267 57.9422 34.2116C57.9595 34.3241 58.0806 34.536 58.3055 34.8474C58.5325 35.1555 58.7769 35.5036 59.0385 35.8929C59.3023 36.2789 59.5024 36.6595 59.6364 37.0346C59.9208 36.9784 60.15 36.8422 60.3262 36.6259C60.5046 36.4065 60.6646 36.1448 60.8095 35.8431Z" stroke="black" stroke-width="2.21477"/>
<path d="M18.3498 31.7892C17.6546 31.893 17.1086 31.7547 16.7107 31.3741C16.3161 30.9935 16.0663 30.4594 15.9626 29.7696C15.8566 29.0776 15.8793 28.3142 16.0317 27.4774C16.1247 26.9789 16.2285 26.4394 16.3431 25.8599C16.4588 25.2804 16.5853 24.6511 16.7237 23.9699C16.4502 24.011 16.2307 23.9699 16.0663 23.8488C15.8998 23.7256 15.7798 23.571 15.7074 23.3861C15.636 23.2023 15.6101 23.0347 15.6295 22.8844C15.6501 22.732 15.7182 22.6465 15.8328 22.6292C16.381 22.546 16.7853 22.3287 17.0481 21.9762C17.313 21.6248 17.4827 21.2712 17.5584 20.9166C17.6989 20.3349 17.8633 19.9554 18.0514 19.7792C18.2417 19.604 18.4547 19.497 18.6915 19.4591C19.0429 19.4072 19.284 19.5229 19.4137 19.8051C19.5456 20.0852 19.5132 20.5382 19.3142 21.1631C19.2245 21.4832 19.1856 21.7232 19.1975 21.881C19.2083 22.0367 19.3013 22.1016 19.4743 22.0757L20.4473 21.9286C20.5706 21.9113 20.6647 21.9881 20.7284 22.1578C20.7944 22.3254 20.8214 22.5244 20.8106 22.7547C20.7987 22.986 20.7468 23.198 20.6549 23.3904C20.5652 23.5807 20.4279 23.691 20.2441 23.7191C19.67 23.8056 19.2472 23.8921 18.9769 23.9786C18.7088 24.0651 18.5325 24.2035 18.4493 24.3938C18.365 24.5819 18.2936 24.8987 18.2331 25.3452C18.1314 26.0232 18.2385 26.5367 18.5531 26.8849C18.8666 27.2309 19.298 27.3628 19.8462 27.2784C20.2203 27.2211 20.5403 27.086 20.8063 26.8719C21.0712 26.6589 21.2777 26.3962 21.4247 26.0848C21.4993 25.9183 21.6172 25.8458 21.7794 25.8685C21.9437 25.8891 22.0875 25.9529 22.2118 26.0588C22.3351 26.1659 22.3762 26.287 22.3329 26.4221C22.2551 26.6535 22.1491 26.9692 22.0172 27.3693C21.8875 27.7704 21.7242 28.2083 21.5285 28.684C21.335 29.1597 21.0928 29.6182 20.802 30.0593C20.5133 30.4983 20.1662 30.8756 19.7597 31.1924C19.3553 31.5071 18.8861 31.706 18.3498 31.7892Z" fill="#FDC8ED"/>
<path d="M23.7507 30.9652C23.1128 31.0635 22.5928 30.8765 22.1895 30.4029C21.7884 29.9272 21.5257 29.2731 21.3981 28.4395C21.3181 27.9183 21.2986 27.3496 21.3419 26.7355C21.3829 26.1213 21.4867 25.5094 21.6532 24.8974C21.8197 24.2865 22.0608 23.72 22.3755 23.1978C22.6923 22.6734 23.0847 22.2322 23.5518 21.8744C24.021 21.5143 24.5811 21.284 25.2298 21.1824C25.6039 21.1283 25.898 21.1197 26.1121 21.1564C26.3283 21.191 26.4948 21.2505 26.6137 21.3337C26.7348 21.4181 26.8365 21.4884 26.9208 21.5457C27.0073 21.6041 27.1122 21.6235 27.2365 21.6062C27.4495 21.5716 27.6128 21.4873 27.7252 21.351C27.8376 21.2127 27.9652 21.0721 28.1101 20.9272C28.2572 20.7834 28.4734 20.6893 28.7588 20.6461C29.0097 20.6093 29.1891 20.645 29.2994 20.7542C29.4119 20.8645 29.4832 21.0256 29.5157 21.2386C29.5676 21.5878 29.5221 21.9479 29.3816 22.3198C29.24 22.6917 29.1059 23.1696 28.9794 23.7513C28.7718 24.4811 28.735 25.0207 28.8713 25.3688C29.0064 25.7181 29.2789 25.8608 29.6886 25.797C30.0141 25.7483 30.2822 25.6229 30.4931 25.4207C30.706 25.2164 30.8834 24.9515 31.025 24.6249C31.1028 24.4584 31.2218 24.386 31.384 24.4087C31.5483 24.4292 31.6921 24.493 31.8164 24.599C31.9397 24.706 31.9786 24.8271 31.9332 24.9623C31.7775 25.4326 31.611 25.9516 31.4359 26.5192C31.2629 27.0847 31.0564 27.635 30.8174 28.1713C30.5806 28.7054 30.2865 29.1606 29.9352 29.538C29.5859 29.9164 29.1502 30.1456 28.6291 30.2256C27.9804 30.324 27.4809 30.1326 27.1327 29.6504C26.7867 29.166 26.6105 28.5292 26.6051 27.7388L26.5272 27.7518C26.2699 28.5714 25.9088 29.2871 25.4417 29.9012C24.9747 30.5132 24.4103 30.8678 23.7507 30.9652ZM25.0309 26.8133C25.3531 26.7647 25.6212 26.6295 25.8353 26.4068C26.0515 26.1819 26.2072 25.9256 26.3024 25.637C26.3975 25.3494 26.4245 25.0747 26.3845 24.8152C26.338 24.5017 26.2137 24.2703 26.0126 24.1233C25.8137 23.9762 25.5639 23.9265 25.2644 23.9719C24.9411 24.0216 24.6741 24.1514 24.4643 24.3611C24.2535 24.5687 24.1032 24.8174 24.0146 25.105C23.9248 25.3904 23.9 25.6705 23.941 25.944C23.9897 26.2587 24.1119 26.4933 24.3086 26.649C24.5043 26.8025 24.7454 26.8566 25.0309 26.8133Z" fill="#FDC8ED"/>
<path d="M33.2583 29.5222C32.5631 29.626 32.0171 29.4876 31.6192 29.107C31.2246 28.7264 30.9748 28.1923 30.871 27.5025C30.765 26.8105 30.7877 26.0472 30.9402 25.2104C31.0332 24.7119 31.137 24.1724 31.2516 23.5929C31.3673 23.0133 31.4938 22.3841 31.6322 21.7029C31.3586 21.744 31.1391 21.7029 30.9748 21.5818C30.8083 21.4586 30.6883 21.3039 30.6158 21.1191C30.5445 20.9353 30.5185 20.7677 30.538 20.6174C30.5585 20.4649 30.6267 20.3795 30.7413 20.3622C31.2894 20.279 31.6938 20.0616 31.9565 19.7092C32.2214 19.3578 32.3912 19.0042 32.4668 18.6496C32.6074 18.0679 32.7717 17.6884 32.9599 17.5121C33.1502 17.337 33.3631 17.23 33.5999 17.1921C33.9513 17.1402 34.1924 17.2559 34.3222 17.5381C34.4541 17.8181 34.4216 18.2712 34.2227 18.8961C34.133 19.2161 34.094 19.4562 34.1059 19.614C34.1167 19.7697 34.2097 19.8346 34.3827 19.8086L35.3558 19.6616C35.479 19.6443 35.5731 19.7211 35.6369 19.8908C35.7028 20.0584 35.7299 20.2573 35.7191 20.4876C35.7072 20.719 35.6553 20.9309 35.5634 21.1234C35.4736 21.3137 35.3363 21.424 35.1525 21.4521C34.5784 21.5386 34.1557 21.6251 33.8854 21.7116C33.6172 21.7981 33.441 21.9365 33.3577 22.1267C33.2734 22.3149 33.202 22.6317 33.1415 23.0782C33.0399 23.7561 33.1469 24.2697 33.4615 24.6179C33.7751 24.9638 34.2065 25.0957 34.7546 25.0114C35.1287 24.9541 35.4488 24.819 35.7147 24.6049C35.9796 24.3919 36.1861 24.1291 36.3332 23.8178C36.4078 23.6513 36.5256 23.5788 36.6878 23.6015C36.8521 23.6221 36.9959 23.6859 37.1203 23.7918C37.2435 23.8989 37.2846 24.0199 37.2414 24.1551C37.1635 24.3865 37.0576 24.7022 36.9257 25.1022C36.7959 25.5034 36.6327 25.9413 36.437 26.417C36.2434 26.8927 36.0013 27.3512 35.7104 27.7923C35.4217 28.2313 35.0747 28.6086 34.6681 28.9254C34.2638 29.24 33.7945 29.439 33.2583 29.5222Z" fill="#FDC8ED"/>
<path d="M38.6592 28.6981C38.0213 28.7965 37.5012 28.6094 37.098 28.1359C36.6968 27.6601 36.4341 27.006 36.3065 26.1724C36.2265 25.6513 36.2071 25.0825 36.2503 24.4684C36.2914 23.8543 36.3952 23.2423 36.5617 22.6304C36.7282 22.0195 36.9693 21.4529 37.2839 20.9307C37.6007 20.4063 37.9932 19.9652 38.4603 19.6073C38.9295 19.2473 39.4896 19.017 40.1383 18.9153C40.5124 18.8613 40.8064 18.8526 41.0205 18.8894C41.2368 18.924 41.4033 18.9834 41.5222 19.0667C41.6433 19.151 41.7449 19.2213 41.8292 19.2786C41.9157 19.337 42.0206 19.3565 42.145 19.3392C42.3579 19.3046 42.5212 19.2202 42.6337 19.084C42.7461 18.9456 42.8737 18.805 43.0186 18.6602C43.1656 18.5164 43.3818 18.4223 43.6673 18.379C43.9181 18.3423 44.0976 18.378 44.2079 18.4872C44.3203 18.5974 44.3917 18.7585 44.4241 18.9715C44.476 19.3208 44.4306 19.6808 44.29 20.0528C44.1484 20.4247 44.0143 20.9026 43.8878 21.4843C43.6802 22.2141 43.6435 22.7536 43.7797 23.1018C43.9149 23.451 44.1873 23.5937 44.5971 23.5299C44.9225 23.4813 45.1907 23.3558 45.4015 23.1537C45.6145 22.9493 45.7918 22.6844 45.9334 22.3579C46.0113 22.1914 46.1302 22.1189 46.2924 22.1416C46.4567 22.1622 46.6005 22.226 46.7249 22.3319C46.8481 22.439 46.8871 22.5601 46.8416 22.6952C46.686 23.1656 46.5195 23.6845 46.3443 24.2522C46.1713 24.8176 45.9648 25.368 45.7259 25.9043C45.4891 26.4384 45.195 26.8936 44.8436 27.2709C44.4944 27.6493 44.0587 27.8785 43.5375 27.9586C42.8888 28.0569 42.3893 27.8656 42.0412 27.3833C41.6952 26.899 41.5189 26.2621 41.5135 25.4718L41.4357 25.4847C41.1784 26.3043 40.8173 27.0201 40.3502 27.6342C39.8831 28.2462 39.3187 28.6008 38.6592 28.6981ZM39.9393 24.5463C40.2615 24.4976 40.5297 24.3624 40.7437 24.1397C40.96 23.9148 41.1157 23.6586 41.2108 23.3699C41.306 23.0823 41.333 22.8077 41.293 22.5482C41.2465 22.2346 41.1221 22.0033 40.921 21.8562C40.7221 21.7092 40.4724 21.6594 40.1729 21.7048C39.8496 21.7546 39.5825 21.8843 39.3728 22.0941C39.1619 22.3017 39.0117 22.5503 38.923 22.8379C38.8333 23.1234 38.8084 23.4034 38.8495 23.677C38.8981 23.9916 39.0203 24.2262 39.2171 24.3819C39.4128 24.5354 39.6539 24.5895 39.9393 24.5463Z" fill="#FDC8ED"/>
<path d="M9.5759 48.8687C8.82879 48.9844 8.19305 48.9108 7.66868 48.6481C7.14646 48.3832 6.72696 47.9907 6.41017 47.4718C6.09663 46.9506 5.89012 46.3668 5.79173 45.7202C5.69118 45.0574 5.69983 44.3773 5.81768 43.6789C5.93337 42.9815 6.15393 42.3209 6.47937 41.6981C6.80481 41.0732 7.23404 40.5455 7.76815 40.1152C8.30117 39.6827 8.93583 39.4103 9.67104 39.2978C10.5706 39.1627 11.2593 39.2935 11.7383 39.6914C12.2162 40.0893 12.5016 40.5953 12.5946 41.2094C12.6778 41.7435 12.6422 42.19 12.4865 42.5501C12.3308 42.9112 12.1167 43.1891 11.8464 43.3848C11.5783 43.5783 11.3058 43.6962 11.029 43.7394C10.709 43.7892 10.4581 43.7697 10.2765 43.6832C10.097 43.5945 9.99972 43.4875 9.98242 43.3632C9.96513 43.2507 9.98351 43.1512 10.0386 43.0647C10.0959 42.9782 10.1533 42.8745 10.2116 42.7534C10.2722 42.6301 10.2852 42.4549 10.2506 42.2301C10.2246 42.0571 10.1446 41.9143 10.0127 41.8019C9.87971 41.6873 9.67104 41.6505 9.38561 41.6938C8.96178 41.7608 8.66121 41.9943 8.48606 42.3944C8.30982 42.7955 8.25793 43.2323 8.33037 43.7048C8.40497 44.2043 8.59634 44.5903 8.90556 44.8639C9.21694 45.1353 9.58995 45.2953 10.0257 45.3439C10.4603 45.3904 10.9133 45.3331 11.3836 45.1709C11.8561 45.0098 12.307 44.7471 12.7373 44.3838C13.1665 44.0205 13.5168 43.5578 13.7882 42.9955C13.8661 42.829 13.9882 42.7555 14.1558 42.775C14.3223 42.7955 14.4683 42.8593 14.5926 42.9653C14.7191 43.0723 14.7548 43.1934 14.7007 43.3286C14.1093 44.9752 13.3817 46.2694 12.5167 47.2123C11.6539 48.1529 10.6744 48.7043 9.5759 48.8687Z" fill="#FDC8ED"/>
<path d="M22.6814 41.6424C22.7387 41.5159 22.85 41.4564 23.0144 41.465C23.1809 41.4715 23.3312 41.5191 23.4641 41.6078C23.5993 41.6943 23.6415 41.8186 23.5896 41.9797C23.4739 42.3808 23.3052 42.8014 23.0836 43.2425C22.8641 43.6837 22.5657 44.0708 22.1883 44.4016C21.8132 44.7335 21.3212 44.9465 20.7136 45.0417L20.4844 45.072C20.1211 45.7758 19.6465 46.3672 19.0615 46.8451C18.4788 47.3209 17.8398 47.6128 17.1457 47.7188C16.3088 47.8463 15.5736 47.6712 14.94 47.1954C14.3086 46.7176 13.9194 45.9921 13.7723 45.0201C13.6664 44.3227 13.6848 43.5907 13.8286 42.823C13.9734 42.0565 14.2275 41.3299 14.5941 40.6433C14.9627 39.9546 15.4298 39.3761 15.9953 38.9091C16.5629 38.442 17.2203 38.1511 17.9674 38.0354C18.4777 37.9576 18.9534 37.9911 19.3945 38.1349C19.8378 38.2766 20.2173 38.5652 20.532 38.9999C20.8455 39.4356 21.0639 40.0465 21.185 40.8336C21.2823 41.4942 21.2855 42.1505 21.1936 42.8014L21.3234 42.7841C21.5969 42.7409 21.8478 42.6284 22.0759 42.4468C22.3029 42.2651 22.5051 41.997 22.6814 41.6424ZM17.6214 43.688C17.9328 43.6394 18.1923 43.5042 18.3998 43.2815C18.6074 43.0598 18.7588 42.8047 18.8539 42.516C18.9513 42.2284 18.9804 41.9537 18.9404 41.6943C18.8994 41.4175 18.7826 41.1958 18.5901 41.0282C18.3966 40.8617 18.1209 40.8055 17.7641 40.8596C17.4635 40.9061 17.2116 41.0326 17.0073 41.2401C16.8051 41.4477 16.658 41.6964 16.5661 41.984C16.4764 42.2727 16.4515 42.5538 16.4926 42.8274C16.5359 43.1042 16.6462 43.3312 16.8256 43.5064C17.0073 43.6794 17.2722 43.7399 17.6214 43.688Z" fill="#FDC8ED"/>
<path d="M31.5741 40.2901C31.6314 40.1636 31.7428 40.1041 31.9071 40.1128C32.0736 40.1193 32.2239 40.1668 32.3569 40.2555C32.4921 40.342 32.5342 40.4663 32.4823 40.6274C32.3666 41.0286 32.198 41.4492 31.9763 41.8903C31.7568 42.3314 31.4584 42.7185 31.0811 43.0494C30.7059 43.3813 30.214 43.5943 29.6064 43.6894L29.3771 43.7197C29.0139 44.4236 28.5392 45.015 27.9543 45.4929C27.3715 45.9686 26.7325 46.2605 26.0384 46.3665C25.2016 46.4941 24.4664 46.3189 23.8328 45.8432C23.2014 45.3653 22.8122 44.6398 22.6651 43.6678C22.5592 42.9704 22.5775 42.2384 22.7213 41.4708C22.8662 40.7042 23.1203 39.9776 23.4868 39.2911C23.8555 38.6023 24.3226 38.0239 24.888 37.5568C25.4557 37.0897 26.113 36.7989 26.8601 36.6832C27.3705 36.6053 27.8462 36.6389 28.2873 36.7827C28.7306 36.9243 29.1101 37.213 29.4247 37.6476C29.7383 38.0834 29.9567 38.6942 30.0778 39.4814C30.1751 40.142 30.1783 40.7983 30.0864 41.4492L30.2161 41.4319C30.4897 41.3886 30.7405 41.2762 30.9687 41.0945C31.1957 40.9129 31.3979 40.6447 31.5741 40.2901ZM26.5141 42.3358C26.8255 42.2871 27.085 42.152 27.2926 41.9292C27.5002 41.7076 27.6516 41.4524 27.7467 41.1637C27.844 40.8761 27.8732 40.6015 27.8332 40.342C27.7921 40.0652 27.6753 39.8436 27.4829 39.676C27.2894 39.5095 27.0137 39.4533 26.6569 39.5073C26.3563 39.5538 26.1044 39.6803 25.9 39.8879C25.6978 40.0955 25.5508 40.3442 25.4589 40.6318C25.3692 40.9205 25.3443 41.2016 25.3854 41.4751C25.4286 41.7519 25.5389 41.979 25.7184 42.1541C25.9 42.3271 26.1649 42.3877 26.5141 42.3358Z" fill="#FDC8ED"/>
<path d="M33.1926 45.278C32.6563 45.3624 32.2509 45.2369 31.9773 44.9018C31.7038 44.5677 31.5254 44.1265 31.4411 43.5784C31.3697 43.1059 31.3502 42.5793 31.3848 41.9998C31.4173 41.4203 31.4865 40.8494 31.5924 40.2872C31.9492 38.3734 32.2552 36.7657 32.5093 35.465C32.7655 34.1621 33.051 33.1663 33.3656 32.4765C33.6791 31.7845 34.0857 31.3996 34.5852 31.3218C34.9744 31.2645 35.236 31.3715 35.3723 31.6418C35.5074 31.9132 35.4826 32.3706 35.2988 33.0128C35.0793 33.8205 34.8338 34.6757 34.5635 35.5774C34.2922 36.4802 34.1376 37.3939 34.1008 38.3194C34.0943 38.5248 34.17 38.6524 34.3257 38.7043C34.4814 38.754 34.6436 38.7378 34.8144 38.6567C34.9841 38.5767 35.0955 38.447 35.1474 38.2675C35.3982 37.3398 35.7161 36.5959 36.1032 36.0359C36.4924 35.4736 37.0222 35.1406 37.6947 35.0368C38.2569 34.9536 38.6937 35.0401 39.0051 35.2963C39.3186 35.5536 39.5046 35.8694 39.563 36.2434C39.7554 37.515 39.0797 38.2696 37.5347 38.5053C37.2233 38.5637 37.0081 38.6848 36.8903 38.8686C36.7713 39.0535 36.7281 39.2568 36.7605 39.4784C36.8092 39.7898 36.9984 40.0061 37.3271 40.1272C37.6579 40.2482 38.0807 40.2699 38.5942 40.192C39.1391 40.1088 39.6192 39.9661 40.0344 39.7639C40.4517 39.5595 40.7523 39.2611 40.9339 38.8686C41.0464 38.621 41.1848 38.5097 41.3491 38.5356C41.5134 38.5594 41.6497 38.6427 41.7599 38.7865C41.8724 38.9281 41.9005 39.0665 41.8464 39.2016C41.7535 39.4352 41.6453 39.7531 41.5221 40.1531C41.3977 40.5542 41.241 40.99 41.0507 41.4592C40.8604 41.9263 40.6269 42.3826 40.3501 42.8258C40.0733 43.267 39.7381 43.6465 39.3467 43.9633C38.9543 44.2779 38.4969 44.4736 37.9758 44.5515C37.3271 44.6498 36.8049 44.4293 36.4102 43.8898C36.0177 43.3513 35.6372 42.4539 35.2685 41.1997C35.1787 40.8797 35.0317 40.6959 34.8274 40.6461C34.6219 40.5942 34.4435 40.6537 34.2911 40.8235C34.1376 40.991 34.09 41.2678 34.1484 41.6538L34.3646 43.0724C34.4133 43.3838 34.423 43.6984 34.3949 44.0152C34.3657 44.3331 34.2608 44.6077 34.0792 44.8412C33.8975 45.0726 33.6013 45.2175 33.1926 45.278Z" fill="#FDC8ED"/>
<path d="M43.4996 33.3713C43.0519 33.4405 42.6519 33.4038 42.2973 33.2589C41.9426 33.1118 41.7275 32.7907 41.6529 32.2944C41.5512 31.6349 41.6669 31.1559 41.9989 30.8586C42.3297 30.5591 42.7514 30.3699 43.2617 30.292C43.7374 30.2207 44.1548 30.265 44.5159 30.4261C44.8759 30.5851 45.0759 30.9613 45.117 31.5549C45.1538 32.1377 45.0154 32.5669 44.7018 32.8437C44.3872 33.1205 43.9861 33.2967 43.4996 33.3713ZM42.9633 43.7942C42.3405 43.8893 41.8626 43.7293 41.5318 43.3141C41.2009 42.8989 40.9858 42.367 40.8874 41.7183C40.8214 41.2836 40.7955 40.8165 40.8096 40.317C40.8214 39.8186 40.8636 39.3353 40.935 38.8682C41.1599 37.441 41.4237 36.3328 41.7264 35.5424C42.0291 34.7531 42.4486 34.3163 42.9849 34.232C43.4055 34.1693 43.6574 34.4179 43.7417 34.9802C43.799 35.3521 43.7861 35.7457 43.7028 36.1608C43.6185 36.5739 43.5363 36.9804 43.4563 37.3805C43.3785 37.7816 43.3655 38.1503 43.4174 38.4876C43.4628 38.7968 43.5752 39.0174 43.7547 39.1493C43.9364 39.2823 44.1504 39.3299 44.3991 39.292C44.6867 39.2488 44.9137 39.1266 45.0781 38.9244C45.2424 38.7233 45.3992 38.4703 45.5495 38.1676C45.6241 37.9978 45.7419 37.92 45.9041 37.934C46.0652 37.9492 46.2079 38.014 46.3323 38.1286C46.4588 38.2443 46.5009 38.3622 46.4577 38.4833C46.3625 38.7028 46.2587 39.0131 46.1463 39.4131C46.036 39.811 45.8966 40.2467 45.7268 40.7192C45.556 41.1896 45.3484 41.6437 45.104 42.0815C44.8586 42.5205 44.5613 42.8968 44.2131 43.2103C43.8672 43.525 43.4498 43.7196 42.9633 43.7942Z" fill="#FDC8ED"/>
<path d="M49.3929 42.8142C48.6425 42.9299 48.0025 42.8564 47.4727 42.5936C46.9418 42.3287 46.518 41.9363 46.2012 41.4173C45.8866 40.8983 45.6844 40.3058 45.5914 39.6398C45.4963 38.9716 45.5093 38.2861 45.6303 37.5855C45.7514 36.8848 45.9817 36.2264 46.3223 35.609C46.6618 34.9895 47.1094 34.4662 47.663 34.0391C48.2166 33.6099 48.8718 33.3374 49.6307 33.2217C50.2189 33.1331 50.713 33.1687 51.1141 33.3298C51.5142 33.492 51.8288 33.7396 52.0569 34.0737C52.2872 34.4089 52.4332 34.783 52.4937 35.1982C52.5629 35.6458 52.5067 36.1129 52.3251 36.5994C52.1434 37.0838 51.8504 37.5076 51.4471 37.8709C51.0428 38.232 50.5357 38.458 49.9248 38.5499C49.6653 38.591 49.4069 38.6105 49.1507 38.6105C48.8966 38.6105 48.6544 38.565 48.4241 38.4721C48.3571 38.444 48.2879 38.4504 48.2166 38.4937C48.1441 38.5369 48.1171 38.6191 48.1344 38.7402C48.1863 39.0667 48.4133 39.284 48.8177 39.3933C49.2242 39.5035 49.6956 39.5176 50.2319 39.4365C50.8687 39.3392 51.5012 39.0775 52.1305 38.6537C52.7586 38.2277 53.2354 37.6579 53.562 36.9454C53.6398 36.7789 53.762 36.7054 53.9296 36.7248C54.0993 36.7454 54.2464 36.8102 54.3707 36.9194C54.4939 37.0265 54.5275 37.1476 54.4702 37.2827C53.8842 38.9262 53.1619 40.2182 52.3035 41.1578C51.4439 42.0984 50.4741 42.6499 49.3929 42.8142ZM49.2285 37.2222C49.5886 37.1681 49.8535 37.0092 50.0243 36.7465C50.1973 36.4848 50.2643 36.235 50.2276 35.9983C50.1951 35.7853 50.0957 35.6155 49.9292 35.4879C49.7616 35.3582 49.5356 35.3149 49.2502 35.3582C48.8891 35.4133 48.6198 35.5701 48.4414 35.8296C48.262 36.0891 48.1917 36.3432 48.2295 36.5908C48.2576 36.7897 48.356 36.9573 48.5236 37.0924C48.6934 37.2254 48.928 37.2687 49.2285 37.2222Z" fill="#FDC8ED"/>
<path d="M60.8125 35.8449C60.8871 35.6784 61.005 35.6049 61.1672 35.6243C61.3315 35.6449 61.4753 35.7098 61.5996 35.819C61.7261 35.926 61.7661 36.046 61.7207 36.1779C61.6569 36.4093 61.5564 36.7293 61.418 37.138C61.2818 37.5446 61.1001 37.9857 60.8731 38.4614C60.6482 38.935 60.3552 39.3956 59.9951 39.8454C59.6373 40.2952 59.2048 40.6833 58.6977 41.0088C58.1928 41.3353 57.5917 41.5515 56.8943 41.6575C56.0726 41.7818 55.3947 41.7072 54.8617 41.4326C54.3308 41.1558 53.9383 40.7622 53.6853 40.2519C53.4291 39.7416 53.2939 39.188 53.2788 38.5912C53.2615 37.9944 53.3566 37.4473 53.5642 36.9477L53.6204 36.818C53.8864 36.3228 54.1437 35.7844 54.3946 35.2048C54.6476 34.6253 54.9114 34.0761 55.186 33.5571C55.4628 33.0359 55.7655 32.5926 56.0942 32.2293C56.4229 31.8661 56.784 31.6563 57.1797 31.5979C57.7679 31.5093 58.222 31.5795 58.542 31.8098C58.8642 32.0412 59.0437 32.3072 59.0783 32.6099C59.101 32.757 59.0534 32.891 58.9356 33.0121C58.8199 33.1311 58.6783 33.2446 58.5118 33.3538C58.3442 33.4608 58.2004 33.5852 58.0793 33.7257C57.9582 33.8641 57.9117 34.0274 57.9409 34.2144C57.9582 34.3269 58.0793 34.5388 58.3042 34.8502C58.5312 35.1594 58.7766 35.5076 59.0394 35.8968C59.301 36.2839 59.5 36.6623 59.6362 37.0342C59.9184 36.9802 60.1476 36.8439 60.3238 36.6277C60.5022 36.4093 60.6655 36.1476 60.8125 35.8449ZM55.6401 37.9079C56.0488 37.8451 56.345 37.6657 56.5267 37.3716C56.7105 37.0753 56.7743 36.7337 56.717 36.3466C56.6824 36.1249 56.6132 35.9011 56.5094 35.6762C56.4056 35.4492 56.2672 35.2211 56.0942 34.9929C55.932 34.7626 55.7828 34.7842 55.6444 35.0578C55.4628 35.4449 55.2639 35.8352 55.0476 36.2298C54.8335 36.6255 54.6422 36.9759 54.4724 37.2808C54.507 37.5056 54.6324 37.6786 54.8487 37.7997C55.0649 37.9187 55.3287 37.9543 55.6401 37.9079Z" fill="#FDC8ED"/>
<defs>
<linearGradient id="paint0_linear_206_1712" x1="11.6442" y1="31.7594" x2="52.3559" y2="31.7594" gradientUnits="userSpaceOnUse">
<stop stop-color="#FF66C4"/>
<stop offset="0.0078125" stop-color="#FF66C4"/>
<stop offset="0.015625" stop-color="#FF67C3"/>
<stop offset="0.0234375" stop-color="#FF68C2"/>
<stop offset="0.03125" stop-color="#FF69C1"/>
<stop offset="0.0390625" stop-color="#FF6AC0"/>
<stop offset="0.046875" stop-color="#FF6BBF"/>
<stop offset="0.0546875" stop-color="#FF6CBF"/>
<stop offset="0.0625" stop-color="#FF6DBE"/>
<stop offset="0.0703125" stop-color="#FF6EBD"/>
<stop offset="0.078125" stop-color="#FF6FBC"/>
<stop offset="0.0859375" stop-color="#FF70BB"/>
<stop offset="0.09375" stop-color="#FF71BA"/>
<stop offset="0.101562" stop-color="#FF72BA"/>
<stop offset="0.109375" stop-color="#FF73B9"/>
<stop offset="0.117188" stop-color="#FF74B8"/>
<stop offset="0.125" stop-color="#FF75B7"/>
<stop offset="0.132812" stop-color="#FF75B6"/>
<stop offset="0.140625" stop-color="#FF76B5"/>
<stop offset="0.148437" stop-color="#FF77B5"/>
<stop offset="0.15625" stop-color="#FF78B4"/>
<stop offset="0.164062" stop-color="#FF79B3"/>
<stop offset="0.171875" stop-color="#FF7AB2"/>
<stop offset="0.179687" stop-color="#FF7BB1"/>
<stop offset="0.1875" stop-color="#FF7CB0"/>
<stop offset="0.195312" stop-color="#FF7DB0"/>
<stop offset="0.203125" stop-color="#FF7EAF"/>
<stop offset="0.210938" stop-color="#FF7FAE"/>
<stop offset="0.21875" stop-color="#FF80AD"/>
<stop offset="0.226562" stop-color="#FF81AC"/>
<stop offset="0.234375" stop-color="#FF82AB"/>
<stop offset="0.242188" stop-color="#FF83AB"/>
<stop offset="0.25" stop-color="#FF84AA"/>
<stop offset="0.257813" stop-color="#FF84A9"/>
<stop offset="0.265625" stop-color="#FF85A8"/>
<stop offset="0.273438" stop-color="#FF86A7"/>
<stop offset="0.28125" stop-color="#FF87A6"/>
<stop offset="0.289062" stop-color="#FF88A6"/>
<stop offset="0.296875" stop-color="#FF89A5"/>
<stop offset="0.304688" stop-color="#FF8AA4"/>
<stop offset="0.3125" stop-color="#FF8BA3"/>
<stop offset="0.320312" stop-color="#FF8CA2"/>
<stop offset="0.328125" stop-color="#FF8DA1"/>
<stop offset="0.335938" stop-color="#FF8EA1"/>
<stop offset="0.34375" stop-color="#FF8FA0"/>
<stop offset="0.351562" stop-color="#FF909F"/>
<stop offset="0.359375" stop-color="#FF919E"/>
<stop offset="0.367188" stop-color="#FF929D"/>
<stop offset="0.375" stop-color="#FF939C"/>
<stop offset="0.382812" stop-color="#FF949C"/>
<stop offset="0.390625" stop-color="#FF949B"/>
<stop offset="0.398438" stop-color="#FF959A"/>
<stop offset="0.40625" stop-color="#FF9699"/>
<stop offset="0.414062" stop-color="#FF9798"/>
<stop offset="0.421875" stop-color="#FF9897"/>
<stop offset="0.429688" stop-color="#FF9996"/>
<stop offset="0.4375" stop-color="#FF9A96"/>
<stop offset="0.445312" stop-color="#FF9B95"/>
<stop offset="0.453125" stop-color="#FF9C94"/>
<stop offset="0.460938" stop-color="#FF9D93"/>
<stop offset="0.46875" stop-color="#FF9E92"/>
<stop offset="0.476562" stop-color="#FF9F91"/>
<stop offset="0.484375" stop-color="#FFA091"/>
<stop offset="0.492188" stop-color="#FFA190"/>
<stop offset="0.5" stop-color="#FFA28F"/>
<stop offset="0.507812" stop-color="#FFA38E"/>
<stop offset="0.515625" stop-color="#FFA38D"/>
<stop offset="0.523438" stop-color="#FFA48C"/>
<stop offset="0.53125" stop-color="#FFA58C"/>
<stop offset="0.539062" stop-color="#FFA68B"/>
<stop offset="0.546875" stop-color="#FFA78A"/>
<stop offset="0.554687" stop-color="#FFA889"/>
<stop offset="0.5625" stop-color="#FFA988"/>
<stop offset="0.570312" stop-color="#FFAA87"/>
<stop offset="0.578125" stop-color="#FFAB87"/>
<stop offset="0.585937" stop-color="#FFAC86"/>
<stop offset="0.59375" stop-color="#FFAD85"/>
<stop offset="0.601562" stop-color="#FFAE84"/>
<stop offset="0.609375" stop-color="#FFAF83"/>
<stop offset="0.617187" stop-color="#FFB082"/>
<stop offset="0.625" stop-color="#FFB182"/>
<stop offset="0.632812" stop-color="#FFB281"/>
<stop offset="0.640625" stop-color="#FFB280"/>
<stop offset="0.648438" stop-color="#FFB37F"/>
<stop offset="0.65625" stop-color="#FFB47E"/>
<stop offset="0.664062" stop-color="#FFB57D"/>
<stop offset="0.671875" stop-color="#FFB67D"/>
<stop offset="0.679688" stop-color="#FFB77C"/>
<stop offset="0.6875" stop-color="#FFB87B"/>
<stop offset="0.695312" stop-color="#FFB97A"/>
<stop offset="0.703125" stop-color="#FFBA79"/>
<stop offset="0.710938" stop-color="#FFBB78"/>
<stop offset="0.71875" stop-color="#FFBC78"/>
<stop offset="0.726562" stop-color="#FFBD77"/>
<stop offset="0.734375" stop-color="#FFBE76"/>
<stop offset="0.742188" stop-color="#FFBF75"/>
<stop offset="0.75" stop-color="#FFC074"/>
<stop offset="0.757812" stop-color="#FFC173"/>
<stop offset="0.765625" stop-color="#FFC173"/>
<stop offset="0.773438" stop-color="#FFC272"/>
<stop offset="0.78125" stop-color="#FFC371"/>
<stop offset="0.789062" stop-color="#FFC470"/>
<stop offset="0.796875" stop-color="#FFC56F"/>
<stop offset="0.804688" stop-color="#FFC66E"/>
<stop offset="0.8125" stop-color="#FFC76D"/>
<stop offset="0.820312" stop-color="#FFC86D"/>
<stop offset="0.828125" stop-color="#FFC96C"/>
<stop offset="0.835938" stop-color="#FFCA6B"/>
<stop offset="0.84375" stop-color="#FFCB6A"/>
<stop offset="0.851562" stop-color="#FFCC69"/>
<stop offset="0.859375" stop-color="#FFCD68"/>
<stop offset="0.867188" stop-color="#FFCE68"/>
<stop offset="0.875" stop-color="#FFCF67"/>
<stop offset="0.882812" stop-color="#FFD066"/>
<stop offset="0.890625" stop-color="#FFD065"/>
<stop offset="0.898438" stop-color="#FFD164"/>
<stop offset="0.90625" stop-color="#FFD263"/>
<stop offset="0.914062" stop-color="#FFD363"/>
<stop offset="0.921875" stop-color="#FFD462"/>
<stop offset="0.929688" stop-color="#FFD561"/>
<stop offset="0.9375" stop-color="#FFD660"/>
<stop offset="0.945312" stop-color="#FFD75F"/>
<stop offset="0.953125" stop-color="#FFD85E"/>
<stop offset="0.960938" stop-color="#FFD95E"/>
<stop offset="0.96875" stop-color="#FFDA5D"/>
<stop offset="0.976562" stop-color="#FFDB5C"/>
<stop offset="0.984375" stop-color="#FFDC5B"/>
<stop offset="0.992188" stop-color="#FFDD5A"/>
<stop offset="1" stop-color="#FFDE59"/>
</linearGradient>
</defs>
</svg>
