<svg width="60" height="60" viewBox="0 0 60 60" fill="none" xmlns="http://www.w3.org/2000/svg">
<path d="M30 60C25.2918 60 21.4195 56.4208 20.9557 51.835C17.3849 54.7497 12.116 54.5424 8.7868 51.2132C5.45759 47.884 5.25034 42.6151 8.16503 39.0443C3.57915 38.5805 -2.05802e-07 34.7082 0 30C3.72639e-07 25.2918 3.57916 21.4195 8.16504 20.9557C5.25035 17.3849 5.4576 12.116 8.78681 8.78679C12.116 5.45759 17.3849 5.25033 20.9557 8.16502C21.4195 3.57915 25.2918 3.72638e-07 30 0C34.7082 -2.05802e-07 38.5805 3.57915 39.0443 8.16502C42.6151 5.25033 47.884 5.45758 51.2132 8.78679C54.5424 12.116 54.7497 17.3849 51.835 20.9557C56.4208 21.4195 60 25.2918 60 30C60 34.7082 56.4209 38.5805 51.835 39.0443C54.7497 42.6151 54.5424 47.884 51.2132 51.2132C47.884 54.5424 42.6151 54.7497 39.0443 51.835C38.5805 56.4208 34.7082 60 30 60Z" fill="#8FE3D9"/>
<path d="M17.7112 35V23.432H22.1272C24.3832 23.432 25.7592 24.584 25.7592 26.488C25.7592 27.816 25.1832 28.712 24.0312 29.192C25.3112 29.608 25.9672 30.536 25.9672 31.912C25.9672 33.832 24.5752 35 22.2872 35H17.7112ZM22.0312 24.824H19.2792V28.536H22.1272C23.4232 28.536 24.1592 27.832 24.1592 26.632C24.1592 25.48 23.3912 24.824 22.0312 24.824ZM22.2552 29.896H19.2792V33.608H22.2552C23.5992 33.608 24.3512 32.92 24.3512 31.72C24.3512 30.568 23.5832 29.896 22.2552 29.896ZM33.0819 27.176H34.5699V35H33.2259L33.0659 33.816C32.6179 34.632 31.5779 35.192 30.4259 35.192C28.6019 35.192 27.5779 33.96 27.5779 32.04V27.176H29.0819V31.544C29.0819 33.224 29.8019 33.864 30.9539 33.864C32.3299 33.864 33.0819 32.984 33.0819 31.304V27.176ZM36.0001 38.504V37.272H37.0081C37.7281 37.272 38.3041 37.16 38.6721 36.168L38.9441 35.416L35.7921 27.176H37.3761L39.6481 33.48L41.9681 27.176H43.5201L39.8241 36.76C39.2961 38.104 38.5121 38.664 37.3121 38.664C36.8161 38.664 36.4001 38.6 36.0001 38.504Z" fill="#46494C"/>
</svg>
