<svg width="36" height="36" viewBox="0 0 36 36" fill="none" xmlns="http://www.w3.org/2000/svg">
<path d="M5.625 9.75C5.625 9.12868 6.12868 8.625 6.75 8.625H29.25C29.8713 8.625 30.375 9.12868 30.375 9.75C30.375 10.3713 29.8713 10.875 29.25 10.875H6.75C6.12868 10.875 5.625 10.3713 5.625 9.75ZM5.625 18C5.625 17.3787 6.12868 16.875 6.75 16.875H29.25C29.8713 16.875 30.375 17.3787 30.375 18C30.375 18.6213 29.8713 19.125 29.25 19.125H6.75C6.12868 19.125 5.625 18.6213 5.625 18ZM5.625 26.25C5.625 25.6287 6.12868 25.125 6.75 25.125H29.25C29.8713 25.125 30.375 25.6287 30.375 26.25C30.375 26.8713 29.8713 27.375 29.25 27.375H6.75C6.12868 27.375 5.625 26.8713 5.625 26.25Z" fill="#46494C"/>
</svg>
