<svg width="40" height="40" viewBox="0 0 40 40" fill="none" xmlns="http://www.w3.org/2000/svg">
<path d="M20 40C16.8612 40 14.2797 37.6139 13.9704 34.5566C11.59 36.4998 8.07734 36.3616 5.85786 34.1421C3.63839 31.9227 3.50022 28.41 5.44335 26.0296C2.3861 25.7203 -1.37201e-07 23.1388 0 20C2.48426e-07 16.8612 2.38611 14.2797 5.44336 13.9704C3.50023 11.59 3.6384 8.07733 5.85787 5.85786C8.07734 3.63839 11.59 3.50022 13.9704 5.44335C14.2797 2.3861 16.8612 2.48425e-07 20 0C23.1388 -1.37201e-07 25.7203 2.3861 26.0296 5.44335C28.41 3.50022 31.9227 3.63839 34.1421 5.85786C36.3616 8.07733 36.4998 11.59 34.5566 13.9704C37.6139 14.2797 40 16.8612 40 20C40 23.1388 37.6139 25.7203 34.5567 26.0296C36.4998 28.41 36.3616 31.9227 34.1421 34.1421C31.9227 36.3616 28.41 36.4998 26.0296 34.5566C25.7203 37.6139 23.1388 40 20 40Z" fill="#F2B5D4"/>
</svg>
