<svg width="40" height="40" viewBox="0 0 40 40" fill="none" xmlns="http://www.w3.org/2000/svg">
<path d="M23.4014 3.40136C23.4014 1.52284 21.8785 0 20 0C18.1215 0 16.5986 1.52284 16.5986 3.40136V7.13012L14.7564 3.88825C13.8283 2.25502 11.7519 1.68341 10.1187 2.61152C8.48542 3.53964 7.91382 5.61602 8.84193 7.24925L10.9383 10.9383L7.24925 8.84193C5.61602 7.91381 3.53964 8.48542 2.61153 10.1186C1.68341 11.7519 2.25502 13.8283 3.88825 14.7564L7.13013 16.5986H3.40136C1.52284 16.5986 0 18.1215 0 20C0 21.8785 1.52284 23.4014 3.40136 23.4014H7.13012L3.88825 25.2436C2.25502 26.1717 1.68341 28.2481 2.61153 29.8813C3.53964 31.5146 5.61602 32.0862 7.24925 31.1581L10.9383 29.0617L8.84193 32.7507C7.91382 34.384 8.48542 36.4604 10.1187 37.3885C11.7519 38.3166 13.8283 37.745 14.7564 36.1117L16.5986 32.8699V36.5986C16.5986 38.4772 18.1215 40 20 40C21.8785 40 23.4014 38.4772 23.4014 36.5986V32.8699L25.2436 36.1117C26.1717 37.745 28.2481 38.3166 29.8813 37.3885C31.5146 36.4604 32.0862 34.384 31.1581 32.7507L29.0617 29.0617L32.7508 31.1581C34.384 32.0862 36.4604 31.5146 37.3885 29.8813C38.3166 28.2481 37.745 26.1717 36.1118 25.2436L32.8699 23.4014H36.5986C38.4772 23.4014 40 21.8785 40 20C40 18.1215 38.4772 16.5986 36.5986 16.5986H32.8699L36.1118 14.7564C37.745 13.8283 38.3166 11.7519 37.3885 10.1186C36.4604 8.48542 34.384 7.91381 32.7508 8.84193L29.0617 10.9383L31.1581 7.24925C32.0862 5.61602 31.5146 3.53964 29.8813 2.61152C28.2481 1.68341 26.1717 2.25502 25.2436 3.88825L23.4014 7.13012V3.40136Z" fill="#336BB7"/>
</svg>
